<?xml version="1.0" standalone="no"?>
<!DOCTYPE svg PUBLIC "-//W3C//DTD SVG 20010904//EN"
 "http://www.w3.org/TR/2001/REC-SVG-20010904/DTD/svg10.dtd">
<svg version="1.0" xmlns="http://www.w3.org/2000/svg"
 width="410.000000pt" height="410.000000pt" viewBox="0 0 410.000000 410.000000"
 preserveAspectRatio="xMidYMid meet">
<metadata>
Created by potrace 1.14, written by Peter Selinger 2001-2017
</metadata>
<g transform="translate(0.000000,410.000000) scale(0.100000,-0.100000)"
fill="#000000" stroke="none">
<path d="M828 4039 c-20 -5 -51 -10 -70 -13 -78 -11 -155 -32 -175 -49 -7 -5
-13 -7 -13 -4 0 11 -104 -45 -175 -94 -65 -45 -197 -169 -180 -169 5 0 -1 -8
-11 -17 -26 -23 -84 -119 -84 -138 0 -7 -4 -17 -10 -20 -11 -7 -55 -141 -64
-195 -3 -19 -8 -46 -10 -60 -15 -84 -19 -343 -19 -1235 1 -921 4 -1107 18
-1205 10 -71 29 -155 43 -190 3 -8 6 -17 6 -20 5 -22 90 -180 97 -180 5 0 9
-6 9 -14 0 -20 145 -165 204 -204 45 -31 160 -92 171 -92 3 0 22 -7 42 -15 21
-8 47 -16 58 -18 11 -1 26 -6 33 -10 6 -5 12 -6 12 -3 0 3 12 1 26 -4 22 -9
117 -19 239 -25 22 -1 42 -3 45 -5 12 -6 46 -4 62 2 9 5 19 4 22 -1 7 -11
1915 -12 1937 -1 8 5 21 5 29 0 8 -5 19 -6 24 -2 6 3 34 7 62 8 149 5 326 38
361 66 7 6 13 8 13 4 0 -4 17 2 38 13 20 10 40 19 45 20 4 0 41 24 83 52 79
53 184 150 184 169 0 6 4 9 9 6 5 -3 14 8 21 24 7 17 16 30 20 30 4 0 13 14
20 30 7 17 17 30 23 30 6 0 8 3 4 6 -3 3 2 20 12 37 15 27 44 101 46 117 0 3
3 10 7 15 7 11 24 99 33 165 16 123 18 301 18 1220 -1 921 -3 1094 -17 1175
-2 17 -7 50 -11 75 -18 119 -71 251 -142 353 -32 46 -131 148 -189 195 -21 17
-27 21 -104 63 -25 13 -48 29 -52 34 -4 6 -8 7 -8 2 0 -4 -12 -1 -27 6 -28 14
-155 49 -228 63 -56 11 -2442 14 -2487 3z"/>
</g>
</svg>
