<?xml version="1.0" standalone="no"?>
<!DOCTYPE svg PUBLIC "-//W3C//DTD SVG 20010904//EN"
 "http://www.w3.org/TR/2001/REC-SVG-20010904/DTD/svg10.dtd">
<svg version="1.0" xmlns="http://www.w3.org/2000/svg"
 width="1000.000000pt" height="1000.000000pt" viewBox="0 0 1000.000000 1000.000000"
 preserveAspectRatio="xMidYMid meet">
<metadata>
Created by potrace 1.14, written by Peter Selinger 2001-2017
</metadata>
<g transform="translate(0.000000,1000.000000) scale(0.100000,-0.100000)"
fill="#000000" stroke="none">
<path d="M0 5000 l0 -5000 925 0 925 0 0 3560 0 3561 908 -4 c995 -3 980 -3
1229 -67 276 -71 473 -186 678 -395 241 -244 376 -519 440 -892 64 -378 73
-1070 19 -1498 -54 -429 -210 -761 -489 -1041 -173 -174 -342 -279 -555 -348
-238 -77 -406 -96 -862 -96 l-348 0 0 -1390 0 -1390 1275 0 1275 0 0 3560 0
3560 492 -2 492 -3 653 -1879 c359 -1033 655 -1881 658 -1884 3 -3 7 -3 10 0
3 3 297 850 653 1884 l648 1879 487 3 487 2 0 1440 0 1440 -5000 0 -5000 0 0
-5000z"/>
<path d="M2870 4950 l0 -1210 278 0 c406 1 540 19 692 93 94 46 205 159 253
258 75 154 94 285 103 713 8 344 -8 695 -35 816 -63 275 -213 444 -447 504
-104 27 -238 36 -546 36 l-298 0 0 -1210z"/>
<path d="M6440 2165 l0 -2165 1280 0 1280 0 0 2165 c0 1330 -4 2165 -9 2165
-5 0 -93 -253 -195 -562 -102 -310 -329 -997 -504 -1528 l-318 -965 -259 0
-259 0 -433 1325 c-238 729 -462 1416 -498 1528 -36 111 -70 202 -75 202 -7 0
-10 -784 -10 -2165z"/>
</g>
</svg>
